<?xml version="1.0" encoding="UTF-8"?>
<svg width="24px" height="24px" viewBox="0 0 24 24" version="1.1" xmlns="http://www.w3.org/2000/svg" xmlns:xlink="http://www.w3.org/1999/xlink">
    <title>icon/24/media-start</title>
    <g id="icon/24/media-start" stroke="none" stroke-width="1" fill="none" fill-rule="evenodd">
        <path d="M8,4 C9.1045695,4 10,4.8954305 10,6 L10,18 C10,19.1045695 9.1045695,20 8,20 C6.8954305,20 6,19.1045695 6,18 L6,6 C6,4.8954305 6.8954305,4 8,4 Z" id="Rectangle" fill="#0091FF"></path>
        <path d="M16,4 C17.1045695,4 18,4.8954305 18,6 L18,18 C18,19.1045695 17.1045695,20 16,20 C14.8954305,20 14,19.1045695 14,18 L14,6 C14,4.8954305 14.8954305,4 16,4 Z" id="Rectangle-Copy" fill="#0091FF"></path>
    </g>
</svg>